<svg width="1280" height="414" viewBox="0 0 1280 414" fill="none" xmlns="http://www.w3.org/2000/svg">
<path d="M1055.44 359.136C1059.11 380.743 1056.97 447.843 1055.44 478.692H1123.94C1123.12 462.142 1120.7 424.673 1117.59 407.197C1114.48 389.72 1116.29 341.395 1117.59 319.416V274.533C1117.59 255.865 1118.65 263.015 1117.59 231.239C1116.74 205.819 1103.58 217.205 1097.11 226.076C1101.35 215.59 1098.87 202.641 1097.11 197.478C1086.94 175.553 1077.41 190.535 1075.61 197.478L1073.84 211.189L1072.93 208.668C1071.48 204.689 1068.5 201.45 1064.66 199.671C1056.89 199.671 1051.56 209.393 1051.56 214.557V239.183C1047.67 230.445 1035.31 237.197 1035.31 239.183C1035.31 241.169 1034.61 249.907 1035.31 257.851C1035.88 264.206 1039.79 281.153 1041.67 288.833C1044.73 303.264 1051.77 337.529 1055.44 359.136Z" fill="#AC836C"/>
<path d="M1051.24 275.368C1051.24 269.013 1060.66 262.393 1065.37 259.878C1069.6 259.878 1071.61 250.61 1072.08 245.976C1077.44 234.855 1085.85 239.489 1089.38 243.196C1090.79 258.289 1096.91 261.599 1102.09 263.055C1115.65 277.354 1103.03 286.49 1095.03 289.27C1092.79 289.27 1087.19 288.873 1082.67 287.284C1077.02 285.298 1079.84 283.71 1075.61 283.71C1071.37 283.71 1069.6 282.518 1066.78 283.71C1063.95 284.901 1065.37 287.284 1061.13 289.27C1056.89 291.256 1056.54 288.873 1052.66 287.284C1048.77 285.696 1051.24 283.312 1051.24 275.368Z" fill="black"/>
<path d="M1054.07 249.154C1057.46 267.266 1048.65 262.262 1043.83 257.495C1039.94 257.495 1038.18 246.374 1038.18 242.799C1038.18 239.224 1049.83 226.514 1054.07 249.154Z" fill="black"/>
<path d="M1073.84 212.215C1065.09 199.822 1059.84 208.375 1058.31 214.201C1058.31 220.874 1060.42 226.514 1061.48 228.5C1073.07 236.444 1074.55 220.953 1073.84 212.215Z" fill="black"/>
<path d="M1095.03 202.682C1088.25 188.701 1082.79 198.18 1080.9 204.668C1079.61 209.302 1078.43 219.762 1084.08 224.528C1091.14 230.486 1103.5 220.159 1095.03 202.682Z" fill="black"/>
<path d="M1112.68 234.855C1114.38 220.874 1105.15 225.587 1100.33 229.691C1096.94 233.822 1098.91 240.151 1100.33 242.799C1103.74 245.976 1110.99 248.836 1112.68 234.855Z" fill="black"/>
<path d="M1057.7 379.735L1053.36 348.045C1058.15 348.045 1068.12 351.293 1069.72 364.286C1071.32 377.279 1063.82 379.999 1057.7 379.735Z" fill="black"/>
<path d="M1097.42 384.884C1092.88 369.673 1083.96 375.113 1080.06 379.735C1073.06 406.671 1069.72 394.787 1074.39 409.048C1079.06 427.666 1086.07 423.704 1092.41 414.197C1098.76 404.69 1103.1 403.898 1097.42 384.884Z" fill="black"/>
<path d="M1115 370L1117 344.5C1115.44 344.5 1109.04 347.252 1106.1 359.928C1103.16 372.604 1110.99 371.584 1115 370Z" fill="black"/>
<path d="M1056 470L1057.7 434C1063.26 437.301 1074.39 445.57 1074.39 460.148C1074.39 474.725 1061.56 472.773 1056 470Z" fill="black"/>
<path d="M1122.5 451L1120 420.5C1118 422.613 1113.51 426.319 1109.77 436.776C1106.03 447.234 1117.38 451 1122.5 451Z" fill="black"/>
<path d="M47.3712 211.544L75.3712 414.544C1.77126 424.944 -5.62878 379.211 -0.128811 355.044C-2.29548 290.211 -5.32881 159.444 -0.128811 155.044C5.07119 150.644 8.37119 161.211 9.37119 167.044C10.8712 163.544 16.6712 156.244 27.8712 155.044C39.0712 153.844 39.5379 171.211 38.3712 180.044C41.3712 170.377 50.3712 156.844 62.3712 180.044C74.3712 203.244 57.3712 210.711 47.3712 211.544Z" fill="#B9776E"/>
<path d="M586.944 315.159C592.144 345.755 589.111 440.767 586.944 484.449H683.944C682.778 461.014 679.344 407.959 674.944 383.212C670.544 358.465 673.111 290.037 674.944 258.916V195.362C674.944 168.928 676.444 179.052 674.944 134.058C673.744 98.0631 655.111 114.186 645.944 126.747C651.944 111.899 648.444 93.5637 645.944 86.2523C631.544 55.2065 618.056 76.4217 615.5 86.2523L613 105.668L611.343 101.111C609.523 96.1077 605.784 92.0363 600.953 89.7988L600 89.3575C589 89.3575 581.444 103.125 581.444 110.436V145.307C575.944 132.934 558.444 142.495 558.444 145.307C558.444 148.119 557.444 160.492 558.444 171.741C559.244 180.74 564.778 204.736 567.444 215.61C571.778 236.045 581.744 284.563 586.944 315.159Z" fill="#CAB297"/>
<path d="M581 196.545C581 187.546 594.333 178.172 601 174.61C607 174.61 609.833 161.487 610.5 154.925C618.1 139.177 630 145.739 635 150.988C637 172.361 645.667 177.047 653 179.109C672.2 199.357 654.333 212.292 643 216.229C639.833 216.229 631.9 215.667 625.5 213.417C617.5 210.605 621.5 208.355 615.5 208.355C609.5 208.355 607 206.668 603 208.355C599 210.043 601 213.417 595 216.229C589 219.042 588.5 215.667 583 213.417C577.5 211.168 581 207.793 581 196.545Z" fill="#815A5A"/>
<path d="M585 159.425C589.8 185.072 577.333 177.985 570.5 171.236C565 171.236 562.5 155.488 562.5 150.426C562.5 145.365 579 127.367 585 159.425Z" fill="#815A5A"/>
<path d="M613 107.12C600.6 89.572 593.167 101.683 591 109.932C591 119.381 594 127.367 595.5 130.179C611.9 141.427 614 119.493 613 107.12Z" fill="#815A5A"/>
<path d="M643 93.6219C633.4 73.8246 625.667 87.2478 623 96.434C621.167 102.996 619.5 117.806 627.5 124.555C637.5 132.992 655 118.369 643 93.6219Z" fill="#815A5A"/>
<path d="M668 139.178C670.4 119.381 657.333 126.055 650.5 131.867C645.7 137.716 648.5 146.677 650.5 150.427C655.333 154.926 665.6 158.976 668 139.178Z" fill="#815A5A"/>
<path d="M590.144 344.326L584 299.454C590.774 299.454 604.891 304.053 607.159 322.451C609.428 340.849 598.809 344.7 590.144 344.326Z" fill="#815A5A"/>
<path d="M646.388 351.618C639.96 330.079 627.325 337.782 621.811 344.326C611.886 382.468 607.159 365.641 613.776 385.833C620.393 412.196 630.318 406.587 639.299 393.125C648.279 379.664 654.423 378.542 646.388 351.618Z" fill="#815A5A"/>
<path d="M673 333.5V292.5C670.794 292.5 662.836 298.332 658.677 316.281C654.517 334.23 667.328 335.744 673 333.5Z" fill="#815A5A"/>
<path d="M587 471.5L590.144 418.366C598.022 423.04 621.811 416.859 621.811 437.5C621.811 458.141 594.877 475.426 587 471.5Z" fill="#815A5A"/>
<path d="M681.5 441.5L677 404.5C674.164 407.492 669.169 410.289 663.876 425.097C658.582 439.905 674.253 441.5 681.5 441.5Z" fill="#815A5A"/>
<path d="M62.5 182.5L75.5 174" stroke="black" stroke-width="4"/>
<path d="M28.9789 161.504L34.5364 147" stroke="black" stroke-width="4"/>
<path d="M5.90932 162.211L2.76153 147.001" stroke="black" stroke-width="4"/>
<path d="M40 207.328C18.5986 183.19 7.30337 197.27 4.33095 207.328C-2.44617 223.017 7.15475 219.564 12.8024 215.876C14.1399 208.634 17.9744 196.785 22.6113 207.328C27.2483 217.87 36.1359 211.72 40 207.328Z" fill="#FDBFD1"/>
<ellipse cx="47" cy="194" rx="7" ry="8" fill="#FDBFD1"/>
<ellipse cx="25" cy="173" rx="7" ry="8" fill="#FDBFD1"/>
<ellipse cx="-3" cy="178" rx="7" ry="8" fill="#FDBFD1"/>
<path d="M190.069 252.584C197.088 284.106 192.994 381.996 190.069 427H321C319.425 402.856 314.791 348.194 308.852 322.698C302.913 297.202 306.377 226.701 308.852 194.638V129.159C308.852 101.925 310.876 112.355 308.852 65.9982C307.232 28.913 282.081 45.5241 269.708 58.4653C277.806 43.1674 273.082 24.2773 269.708 16.7445C250.27 -15.2415 232.063 6.61622 228.614 16.7445L225.239 36.7481L222.733 31.4885C220.449 26.6941 216.351 23.0052 211.344 21.235L207.692 19.9437C192.844 19.9437 182.645 34.1281 182.645 41.6611V77.5875C175.221 64.8395 151.6 74.6902 151.6 77.5875C151.6 80.4848 150.25 93.2329 151.6 104.822C152.68 114.093 160.149 138.817 163.748 150.02C169.597 171.073 183.05 221.061 190.069 252.584Z" fill="#C4C4C4"/>
<path d="M190.069 252.584C197.088 284.106 192.994 381.996 190.069 427H321C319.425 402.856 314.791 348.194 308.852 322.698C302.913 297.202 306.377 226.701 308.852 194.638V129.159C308.852 101.925 310.876 112.355 308.852 65.9982C307.232 28.913 282.081 45.5241 269.708 58.4653C277.806 43.1674 273.082 24.2773 269.708 16.7445C250.27 -15.2415 232.063 6.61622 228.614 16.7445L225.239 36.7481L222.733 31.4885C220.449 26.6941 216.351 23.0052 211.344 21.235L207.692 19.9437C192.844 19.9437 182.645 34.1281 182.645 41.6611V77.5875C175.221 64.8395 151.6 74.6902 151.6 77.5875C151.6 80.4848 150.25 93.2329 151.6 104.822C152.68 114.093 160.149 138.817 163.748 150.02C169.597 171.073 183.05 221.061 190.069 252.584Z" fill="#C4C4C4"/>
<path d="M182.48 130.455C182.48 121.113 200.46 111.382 209.45 107.684C217.541 107.684 221.362 94.0607 222.261 87.2489C232.51 70.9006 248.557 77.7124 255.3 83.1618C257.997 105.349 269.684 110.214 279.573 112.355C305.464 133.374 281.371 146.803 266.088 150.891C261.817 150.891 251.119 150.307 242.489 147.971C231.701 145.052 237.095 142.716 229.004 142.716C220.913 142.716 217.541 140.965 212.147 142.716C206.753 144.468 209.45 147.971 201.359 150.891C193.268 153.81 192.594 150.307 185.177 147.971C177.76 145.636 182.48 142.133 182.48 130.455Z" fill="#383333"/>
<path d="M187.616 92.2918C194.148 118.771 177.184 111.454 167.886 104.486C160.402 104.486 157 88.227 157 83.0009C157 77.7748 179.452 59.1931 187.616 92.2918Z" fill="#383333"/>
<path d="M225.717 38.2886C208.844 20.1714 198.729 32.6754 195.781 41.192C195.781 50.9474 199.863 59.193 201.904 62.0964C224.22 73.71 227.077 51.0635 225.717 38.2886Z" fill="#383333"/>
<path d="M265.961 24.5608C253.041 4.12982 242.632 17.9826 239.043 27.4629C236.576 34.2346 234.332 49.5193 245.1 56.4844C258.559 65.1908 282.112 50.0995 265.961 24.5608Z" fill="#383333"/>
<path d="M299.609 71.5754C302.839 51.1445 285.253 58.0322 276.056 64.0299C269.595 70.0663 273.364 79.3144 276.056 83.184C282.561 87.8273 296.379 92.0064 299.609 71.5754Z" fill="#383333"/>
<path d="M194.318 282.685L186 236.203C195.172 236.203 214.283 240.968 217.354 260.025C220.425 279.083 206.049 283.072 194.318 282.685Z" fill="#383333"/>
<path d="M270.464 290.238C261.762 267.927 244.655 275.906 237.19 282.685C223.753 322.195 217.354 304.764 226.312 325.681C235.271 352.989 248.708 347.179 260.866 333.234C273.023 319.29 281.342 318.128 270.464 290.238Z" fill="#383333"/>
<path d="M306.492 271.47V229C303.506 229 292.732 235.041 287.101 253.634C281.47 272.227 298.814 273.795 306.492 271.47Z" fill="#383333"/>
<path d="M190.062 414.42L194.318 359.38C204.983 364.222 237.19 357.819 237.19 379.2C237.19 400.582 200.726 418.487 190.062 414.42Z" fill="#383333"/>
<path d="M318 383.344L311.908 345.017C308.068 348.116 301.306 351.014 294.139 366.353C286.973 381.692 308.189 383.344 318 383.344Z" fill="#383333"/>
<path d="M504 207.564L517 199.064" stroke="black" stroke-width="4"/>
<path d="M468.892 176.63L474.108 161.999" stroke="black" stroke-width="4"/>
<path d="M428.39 181.258L422.082 167.064" stroke="black" stroke-width="4"/>
<path d="M395.809 211.371L382 204.26" stroke="black" stroke-width="4"/>
<ellipse cx="407.5" cy="216.064" rx="20.5" ry="21" fill="black"/>
<ellipse cx="435.5" cy="195.064" rx="20.5" ry="21" fill="black"/>
<ellipse cx="465.5" cy="195.064" rx="20.5" ry="21" fill="black"/>
<ellipse cx="491.5" cy="216.064" rx="20.5" ry="21" fill="black"/>
<path d="M517.5 433.064H394L411 228.564L451 196.064L492 220.564L496.5 265.564L517.5 433.064Z" fill="black"/>
<ellipse cx="407.5" cy="216.064" rx="6.5" ry="7" fill="#FDBFD1"/>
<ellipse cx="434.5" cy="196.064" rx="6.5" ry="7" fill="#FDBFD1"/>
<ellipse cx="465.5" cy="196.064" rx="6.5" ry="7" fill="#FDBFD1"/>
<ellipse cx="492.5" cy="216.064" rx="6.5" ry="7" fill="#FDBFD1"/>
<path d="M469.728 229.095C456.528 205.495 438.895 219.262 431.728 229.095C426.928 254.695 433.062 254.929 438.728 251.595C444.395 248.262 447.228 245.595 448.728 234.095C449.928 224.895 456.562 236.762 459.728 240.595C456.202 254.095 486.228 258.595 469.728 229.095Z" fill="#FDBFD1"/>
<path d="M923.764 135.175L940.361 124.322" stroke="black" stroke-width="4"/>
<path d="M878.94 95.6792L885.599 76.9998" stroke="black" stroke-width="4"/>
<path d="M827.229 101.588L819.175 83.466" stroke="black" stroke-width="4"/>
<path d="M785.63 140.035L768 130.955" stroke="black" stroke-width="4"/>
<ellipse cx="800.557" cy="146.029" rx="26.1734" ry="26.8118" fill="#C4C4C4"/>
<ellipse cx="836.306" cy="119.216" rx="26.1734" ry="26.8118" fill="#C4C4C4"/>
<ellipse cx="874.609" cy="119.216" rx="26.1734" ry="26.8118" fill="#C4C4C4"/>
<ellipse cx="907.804" cy="146.029" rx="26.1734" ry="26.8118" fill="#C4C4C4"/>
<path d="M941 423.083H783.321L805.026 161.987L856.096 120.492L908.443 151.773L914.188 209.226L941 423.083Z" fill="#C4C4C4"/>
<path d="M795.45 265.96L798.642 231.488C807.109 231.488 825.172 223.971 828.007 247.448C830.843 270.924 806.28 266.438 795.45 265.96Z" fill="#868686"/>
<path d="M886.833 279.675C878.799 252.19 863.007 262.02 856.115 270.37C843.709 319.04 837.802 297.568 846.072 323.335C854.343 356.975 866.748 349.817 877.972 332.639C889.196 315.462 896.876 314.03 886.833 279.675Z" fill="#868686"/>
<path d="M916.961 254.624V205.953C914.204 205.953 907.391 211.679 902.192 234.583C896.994 257.487 909.872 257.487 916.961 254.624Z" fill="#868686"/>
<path d="M784.598 419.171L789.705 345.758C806.303 345.758 817.155 371.931 817.155 401.296C817.155 417.199 840.136 424.278 784.598 419.171Z" fill="#868686"/>
<path d="M939.085 394.274L931.424 339.374C927.88 343.191 915.307 354.541 908.69 373.437C902.074 392.332 930.027 394.274 939.085 394.274Z" fill="#868686"/>
<ellipse cx="800.557" cy="146.027" rx="8.29889" ry="8.93727" fill="#FDBFD1"/>
<ellipse cx="835.029" cy="120.492" rx="8.29889" ry="8.93727" fill="#FDBFD1"/>
<ellipse cx="874.609" cy="120.492" rx="8.29889" ry="8.93727" fill="#FDBFD1"/>
<ellipse cx="909.081" cy="146.027" rx="8.29889" ry="8.93727" fill="#FDBFD1"/>
<path d="M880.007 162.664C863.154 132.533 840.641 150.11 831.491 162.664C825.362 195.349 833.193 195.647 840.428 191.391C847.663 187.135 851.28 183.731 853.196 169.048C854.728 157.302 863.197 172.453 867.24 177.347C862.738 194.583 901.074 200.329 880.007 162.664Z" fill="#FDBFD1"/>
<path d="M1253.17 95.365L1245.08 76.6719" stroke="black" stroke-width="4"/>
<path d="M1211.37 135.024L1193.65 125.658" stroke="black" stroke-width="4"/>
<ellipse cx="1226.37" cy="141.206" rx="26.3018" ry="27.6576" fill="black"/>
<ellipse cx="1262.29" cy="113.548" rx="26.3018" ry="27.6576" fill="black"/>
<ellipse cx="1300.78" cy="113.548" rx="26.3018" ry="27.6576" fill="black"/>
<path d="M1367.5 427.001H1209.05L1230.86 157.669L1282.18 114.865L1334.78 147.132L1340.56 206.399L1367.5 427.001Z" fill="black"/>
<path d="M1219.95 270.848L1227.01 215.533C1235.52 215.533 1249.82 221.607 1252.67 245.824C1255.52 270.041 1230.84 271.34 1219.95 270.848Z" fill="white"/>
<path d="M1313.07 284.336C1304.99 255.985 1289.12 266.124 1282.2 274.738C1269.73 324.944 1263.8 302.794 1272.11 329.373C1280.42 364.074 1292.88 356.691 1304.16 338.972C1315.44 321.252 1323.16 319.775 1313.07 284.336Z" fill="white"/>
<path d="M1348.9 264.921L1343.34 208.289C1340.57 208.289 1333.73 214.196 1328.5 237.822C1323.28 261.448 1341.77 267.874 1348.9 264.921Z" fill="white"/>
<path d="M1208.62 416.476L1216.1 344.878C1232.78 344.878 1315.35 424.617 1272.11 424.617C1262.65 424.617 1225.81 417.234 1208.62 416.476L1207.76 424.617C1195.26 417.833 1198.62 416.035 1208.62 416.476Z" fill="white"/>
<path d="M1357.41 353.14L1357.24 351.845C1358.32 351.845 1358.25 352.277 1357.41 353.14L1364.29 403.209C1355.19 403.209 1328.38 400.547 1335.03 381.056C1340.28 365.671 1354.27 356.375 1357.41 353.14Z" fill="white"/>
<ellipse cx="1226.37" cy="141.206" rx="8.3396" ry="9.21919" fill="#FDBFD1"/>
<ellipse cx="1261.01" cy="114.866" rx="8.3396" ry="9.21919" fill="#FDBFD1"/>
<path d="M1306.21 158.367C1289.27 127.285 1266.65 145.416 1257.45 158.367C1251.3 192.083 1259.16 192.39 1266.43 188C1273.71 183.61 1277.34 180.098 1279.27 164.952C1280.8 152.835 1289.32 168.464 1293.38 173.513C1288.85 191.293 1327.38 197.219 1306.21 158.367Z" fill="#FDBFD1"/>
</svg>
