<svg width="404" height="366" viewBox="0 0 404 366" fill="none" xmlns="http://www.w3.org/2000/svg">
<path d="M13 43V235.709M13 235.709H82M13 235.709V366" stroke="#F93C67" stroke-opacity="0.4"/>
<path d="M97.3 69H106.3L112.8 44L119.3 69H128.3L138.05 31.75H129.65L123.4 58.3L116.8 31.75H108.8L102.2 58.3L95.95 31.75H87.55L97.3 69ZM152.998 69.6C155.798 69.6 158.248 69 160.348 67.8C162.448 66.5667 163.914 64.95 164.748 62.95L158.748 60.1C158.214 61.0333 157.464 61.7667 156.498 62.3C155.564 62.8333 154.431 63.1 153.098 63.1C151.264 63.1 149.764 62.5833 148.598 61.55C147.431 60.5167 146.748 59.15 146.548 57.45H165.648C165.781 57.0833 165.864 56.65 165.898 56.15C165.964 55.6167 165.998 55.0833 165.998 54.55C165.998 52.0167 165.464 49.75 164.398 47.75C163.364 45.7167 161.848 44.1 159.848 42.9C157.848 41.7 155.398 41.1 152.498 41.1C149.898 41.1 147.564 41.7167 145.498 42.95C143.431 44.1833 141.781 45.8667 140.548 48C139.348 50.1333 138.748 52.5667 138.748 55.3C138.748 57.9333 139.331 60.3333 140.498 62.5C141.664 64.6667 143.314 66.4 145.448 67.7C147.581 68.9667 150.098 69.6 152.998 69.6ZM152.498 47.1C154.031 47.1 155.298 47.55 156.298 48.45C157.298 49.35 157.881 50.5167 158.048 51.95H146.698C147.064 50.3833 147.748 49.1833 148.748 48.35C149.781 47.5167 151.031 47.1 152.498 47.1ZM170.414 69H177.914V31.15H170.414V69ZM196.802 69.6C198.869 69.6 200.769 69.25 202.502 68.55C204.236 67.8167 205.719 66.8167 206.952 65.55C208.186 64.2833 209.052 62.85 209.552 61.25L203.052 58.4C202.586 59.7667 201.802 60.85 200.702 61.65C199.602 62.45 198.302 62.85 196.802 62.85C194.836 62.85 193.219 62.15 191.952 60.75C190.686 59.35 190.052 57.55 190.052 55.35C190.052 53.15 190.686 51.35 191.952 49.95C193.219 48.55 194.836 47.85 196.802 47.85C198.269 47.85 199.552 48.25 200.652 49.05C201.786 49.85 202.586 50.9333 203.052 52.3L209.552 49.5C209.019 47.8 208.136 46.3333 206.902 45.1C205.669 43.8333 204.186 42.85 202.452 42.15C200.719 41.45 198.836 41.1 196.802 41.1C194.069 41.1 191.602 41.7167 189.402 42.95C187.202 44.1833 185.469 45.8833 184.202 48.05C182.936 50.1833 182.302 52.6 182.302 55.3C182.302 58 182.936 60.4333 184.202 62.6C185.502 64.7667 187.236 66.4833 189.402 67.75C191.602 68.9833 194.069 69.6 196.802 69.6ZM227.519 69.6C230.219 69.6 232.669 68.9833 234.869 67.75C237.069 66.5167 238.819 64.8333 240.119 62.7C241.452 60.5333 242.119 58.0833 242.119 55.35C242.119 52.5833 241.452 50.1333 240.119 48C238.819 45.8667 237.069 44.1833 234.869 42.95C232.669 41.7167 230.219 41.1 227.519 41.1C224.819 41.1 222.352 41.7167 220.119 42.95C217.919 44.1833 216.152 45.8667 214.819 48C213.519 50.1333 212.869 52.5833 212.869 55.35C212.869 58.0833 213.519 60.5333 214.819 62.7C216.152 64.8333 217.919 66.5167 220.119 67.75C222.352 68.9833 224.819 69.6 227.519 69.6ZM227.519 62.85C225.485 62.85 223.819 62.15 222.519 60.75C221.252 59.35 220.619 57.55 220.619 55.35C220.619 53.1833 221.252 51.4 222.519 50C223.819 48.5667 225.485 47.85 227.519 47.85C229.552 47.85 231.202 48.5667 232.469 50C233.735 51.4 234.369 53.1833 234.369 55.35C234.369 57.55 233.735 59.35 232.469 60.75C231.202 62.15 229.552 62.85 227.519 62.85ZM246.537 69H254.037V53.05C254.037 51.4833 254.454 50.2333 255.287 49.3C256.154 48.3333 257.32 47.85 258.787 47.85C260.254 47.85 261.404 48.3333 262.237 49.3C263.104 50.2333 263.537 51.4833 263.537 53.05V69H271.037V53.05C271.037 51.4833 271.454 50.2333 272.287 49.3C273.154 48.3333 274.32 47.85 275.787 47.85C277.254 47.85 278.404 48.3333 279.237 49.3C280.104 50.2333 280.537 51.4833 280.537 53.05V69H288.037V51.45C288.037 49.3833 287.604 47.5833 286.737 46.05C285.87 44.4833 284.67 43.2667 283.137 42.4C281.637 41.5333 279.904 41.1 277.937 41.1C276.17 41.1 274.554 41.45 273.087 42.15C271.654 42.8167 270.454 43.8667 269.487 45.3C268.72 44 267.587 42.9833 266.087 42.25C264.62 41.4833 262.987 41.1 261.187 41.1C259.454 41.1 257.92 41.4333 256.587 42.1C255.254 42.7333 254.237 43.7167 253.537 45.05V41.7H246.537V69ZM306.123 69.6C308.923 69.6 311.373 69 313.473 67.8C315.573 66.5667 317.039 64.95 317.873 62.95L311.873 60.1C311.339 61.0333 310.589 61.7667 309.623 62.3C308.689 62.8333 307.556 63.1 306.223 63.1C304.389 63.1 302.889 62.5833 301.723 61.55C300.556 60.5167 299.873 59.15 299.673 57.45H318.773C318.906 57.0833 318.989 56.65 319.023 56.15C319.089 55.6167 319.123 55.0833 319.123 54.55C319.123 52.0167 318.589 49.75 317.523 47.75C316.489 45.7167 314.973 44.1 312.973 42.9C310.973 41.7 308.523 41.1 305.623 41.1C303.023 41.1 300.689 41.7167 298.623 42.95C296.556 44.1833 294.906 45.8667 293.673 48C292.473 50.1333 291.873 52.5667 291.873 55.3C291.873 57.9333 292.456 60.3333 293.623 62.5C294.789 64.6667 296.439 66.4 298.573 67.7C300.706 68.9667 303.223 69.6 306.123 69.6ZM305.623 47.1C307.156 47.1 308.423 47.55 309.423 48.45C310.423 49.35 311.006 50.5167 311.173 51.95H299.823C300.189 50.3833 300.873 49.1833 301.873 48.35C302.906 47.5167 304.156 47.1 305.623 47.1ZM345.673 69.3C346.907 69.3 348.073 69.2167 349.173 69.05V62.65C348.473 62.75 347.89 62.8 347.423 62.8C344.323 62.8 342.773 61.4167 342.773 58.65V48.2H349.173V41.7H342.773V35.5H335.273V37.5C335.273 40.3 333.823 41.7 330.923 41.7H330.673V48.2H335.273V59.15C335.273 62.35 336.173 64.85 337.973 66.65C339.807 68.4167 342.373 69.3 345.673 69.3ZM367.118 69.6C369.818 69.6 372.268 68.9833 374.468 67.75C376.668 66.5167 378.418 64.8333 379.718 62.7C381.052 60.5333 381.718 58.0833 381.718 55.35C381.718 52.5833 381.052 50.1333 379.718 48C378.418 45.8667 376.668 44.1833 374.468 42.95C372.268 41.7167 369.818 41.1 367.118 41.1C364.418 41.1 361.952 41.7167 359.718 42.95C357.518 44.1833 355.752 45.8667 354.418 48C353.118 50.1333 352.468 52.5833 352.468 55.35C352.468 58.0833 353.118 60.5333 354.418 62.7C355.752 64.8333 357.518 66.5167 359.718 67.75C361.952 68.9833 364.418 69.6 367.118 69.6ZM367.118 62.85C365.085 62.85 363.418 62.15 362.118 60.75C360.852 59.35 360.218 57.55 360.218 55.35C360.218 53.1833 360.852 51.4 362.118 50C363.418 48.5667 365.085 47.85 367.118 47.85C369.152 47.85 370.802 48.5667 372.068 50C373.335 51.4 373.968 53.1833 373.968 55.35C373.968 57.55 373.335 59.35 372.068 60.75C370.802 62.15 369.152 62.85 367.118 62.85ZM90.3 132H98.05V118.5H104.6C107.133 118.5 109.383 118.05 111.35 117.15C113.35 116.217 114.917 114.867 116.05 113.1C117.217 111.333 117.8 109.183 117.8 106.65C117.8 104.05 117.233 101.867 116.1 100.1C114.967 98.3333 113.4 97 111.4 96.1C109.433 95.2 107.167 94.75 104.6 94.75H90.3V132ZM98.05 111.75V101.5H104.65C106.283 101.5 107.583 101.967 108.55 102.9C109.55 103.833 110.05 105.083 110.05 106.65C110.05 108.183 109.55 109.417 108.55 110.35C107.583 111.283 106.283 111.75 104.65 111.75H98.05ZM134.394 132.6C137.194 132.6 139.644 132 141.744 130.8C143.844 129.567 145.311 127.95 146.144 125.95L140.144 123.1C139.611 124.033 138.861 124.767 137.894 125.3C136.961 125.833 135.827 126.1 134.494 126.1C132.661 126.1 131.161 125.583 129.994 124.55C128.827 123.517 128.144 122.15 127.944 120.45H147.044C147.177 120.083 147.261 119.65 147.294 119.15C147.361 118.617 147.394 118.083 147.394 117.55C147.394 115.017 146.861 112.75 145.794 110.75C144.761 108.717 143.244 107.1 141.244 105.9C139.244 104.7 136.794 104.1 133.894 104.1C131.294 104.1 128.961 104.717 126.894 105.95C124.827 107.183 123.177 108.867 121.944 111C120.744 113.133 120.144 115.567 120.144 118.3C120.144 120.933 120.727 123.333 121.894 125.5C123.061 127.667 124.711 129.4 126.844 130.7C128.977 131.967 131.494 132.6 134.394 132.6ZM133.894 110.1C135.427 110.1 136.694 110.55 137.694 111.45C138.694 112.35 139.277 113.517 139.444 114.95H128.094C128.461 113.383 129.144 112.183 130.144 111.35C131.177 110.517 132.427 110.1 133.894 110.1ZM164.961 132.3C166.194 132.3 167.361 132.217 168.461 132.05V125.65C167.761 125.75 167.177 125.8 166.711 125.8C163.611 125.8 162.061 124.417 162.061 121.65V111.2H168.461V104.7H162.061V98.5H154.561V100.5C154.561 103.3 153.111 104.7 150.211 104.7H149.961V111.2H154.561V122.15C154.561 125.35 155.461 127.85 157.261 129.65C159.094 131.417 161.661 132.3 164.961 132.3ZM183.555 132.6C186.722 132.6 189.272 131.817 191.205 130.25C193.139 128.683 194.105 126.633 194.105 124.1C194.105 122.133 193.505 120.483 192.305 119.15C191.105 117.783 189.372 116.767 187.105 116.1L182.755 114.8C180.789 114.233 179.805 113.417 179.805 112.35C179.805 111.65 180.072 111.1 180.605 110.7C181.172 110.3 181.939 110.1 182.905 110.1C184.239 110.1 185.422 110.45 186.455 111.15C187.522 111.817 188.255 112.717 188.655 113.85L194.205 111.25C193.372 108.983 191.939 107.233 189.905 106C187.905 104.733 185.572 104.1 182.905 104.1C180.872 104.1 179.072 104.467 177.505 105.2C175.939 105.9 174.722 106.883 173.855 108.15C172.989 109.417 172.555 110.9 172.555 112.6C172.555 114.533 173.155 116.217 174.355 117.65C175.555 119.05 177.272 120.067 179.505 120.7L184.155 122C185.955 122.5 186.855 123.3 186.855 124.4C186.855 126.033 185.755 126.85 183.555 126.85C182.089 126.85 180.755 126.433 179.555 125.6C178.355 124.767 177.405 123.617 176.705 122.15L171.205 124.75C172.005 127.15 173.505 129.067 175.705 130.5C177.939 131.9 180.555 132.6 183.555 132.6Z" fill="black"/>
<path d="M206.138 132H215.138L221.638 107L228.138 132H237.138L246.888 94.75H238.488L232.238 121.3L225.638 94.75H217.638L211.038 121.3L204.788 94.75H196.388L206.138 132ZM261.836 132.6C264.636 132.6 267.086 132 269.186 130.8C271.286 129.567 272.752 127.95 273.586 125.95L267.586 123.1C267.052 124.033 266.302 124.767 265.336 125.3C264.402 125.833 263.269 126.1 261.936 126.1C260.102 126.1 258.602 125.583 257.436 124.55C256.269 123.517 255.586 122.15 255.386 120.45H274.486C274.619 120.083 274.702 119.65 274.736 119.15C274.802 118.617 274.836 118.083 274.836 117.55C274.836 115.017 274.302 112.75 273.236 110.75C272.202 108.717 270.686 107.1 268.686 105.9C266.686 104.7 264.236 104.1 261.336 104.1C258.736 104.1 256.402 104.717 254.336 105.95C252.269 107.183 250.619 108.867 249.386 111C248.186 113.133 247.586 115.567 247.586 118.3C247.586 120.933 248.169 123.333 249.336 125.5C250.502 127.667 252.152 129.4 254.286 130.7C256.419 131.967 258.936 132.6 261.836 132.6ZM261.336 110.1C262.869 110.1 264.136 110.55 265.136 111.45C266.136 112.35 266.719 113.517 266.886 114.95H255.536C255.902 113.383 256.586 112.183 257.586 111.35C258.619 110.517 259.869 110.1 261.336 110.1ZM292.402 132.6C295.202 132.6 297.652 132 299.752 130.8C301.852 129.567 303.319 127.95 304.152 125.95L298.152 123.1C297.619 124.033 296.869 124.767 295.902 125.3C294.969 125.833 293.835 126.1 292.502 126.1C290.669 126.1 289.169 125.583 288.002 124.55C286.835 123.517 286.152 122.15 285.952 120.45H305.052C305.185 120.083 305.269 119.65 305.302 119.15C305.369 118.617 305.402 118.083 305.402 117.55C305.402 115.017 304.869 112.75 303.802 110.75C302.769 108.717 301.252 107.1 299.252 105.9C297.252 104.7 294.802 104.1 291.902 104.1C289.302 104.1 286.969 104.717 284.902 105.95C282.835 107.183 281.185 108.867 279.952 111C278.752 113.133 278.152 115.567 278.152 118.3C278.152 120.933 278.735 123.333 279.902 125.5C281.069 127.667 282.719 129.4 284.852 130.7C286.985 131.967 289.502 132.6 292.402 132.6ZM291.902 110.1C293.435 110.1 294.702 110.55 295.702 111.45C296.702 112.35 297.285 113.517 297.452 114.95H286.102C286.469 113.383 287.152 112.183 288.152 111.35C289.185 110.517 290.435 110.1 291.902 110.1ZM309.818 132H317.318V123.65L320.318 120.35L327.268 132H335.768L325.918 115.7L335.818 104.7H326.568L317.318 114.55V94.15H309.818V132ZM339.115 132H346.615V94.15H339.115V132ZM356.354 143.1C361.354 143.1 364.97 140.25 367.204 134.55L378.904 104.7H370.854L364.404 122.25L357.954 104.7H349.904L360.654 132L360.154 133.15C359.754 134.05 359.237 134.85 358.604 135.55C357.97 136.25 356.92 136.6 355.454 136.6C354.254 136.6 353.12 136.433 352.054 136.1V142.25C352.62 142.55 353.27 142.767 354.004 142.9C354.77 143.033 355.554 143.1 356.354 143.1Z" fill="#F93C67"/>
<path d="M97.11 223.36C98.69 223.36 100.07 223.08 101.25 222.52C102.45 221.94 103.39 221.15 104.07 220.15C104.75 219.13 105.09 217.97 105.09 216.67C105.09 213.67 103.3 211.59 99.72 210.43L95.43 209.05C94.07 208.59 93.39 207.83 93.39 206.77C93.39 206.05 93.68 205.47 94.26 205.03C94.84 204.57 95.6 204.34 96.54 204.34C97.62 204.34 98.58 204.64 99.42 205.24C100.26 205.82 100.89 206.63 101.31 207.67L105.09 205.96C104.47 204.2 103.39 202.82 101.85 201.82C100.33 200.8 98.56 200.29 96.54 200.29C95.02 200.29 93.67 200.57 92.49 201.13C91.33 201.69 90.42 202.47 89.76 203.47C89.12 204.47 88.8 205.63 88.8 206.95C88.8 209.99 90.59 212.1 94.17 213.28L98.55 214.72C99.87 215.16 100.53 215.9 100.53 216.94C100.53 217.66 100.24 218.24 99.66 218.68C99.1 219.1 98.35 219.31 97.41 219.31C96.21 219.31 95.11 218.96 94.11 218.26C93.13 217.56 92.36 216.6 91.8 215.38L87.99 217.09C88.43 218.37 89.09 219.48 89.97 220.42C90.87 221.36 91.93 222.09 93.15 222.61C94.39 223.11 95.71 223.36 97.11 223.36ZM116.204 223.36C117.824 223.36 119.294 222.99 120.614 222.25C121.934 221.51 122.984 220.5 123.764 219.22C124.564 217.92 124.964 216.45 124.964 214.81C124.964 213.15 124.564 211.68 123.764 210.4C122.984 209.12 121.934 208.11 120.614 207.37C119.294 206.63 117.824 206.26 116.204 206.26C114.584 206.26 113.104 206.63 111.764 207.37C110.444 208.11 109.384 209.12 108.584 210.4C107.804 211.68 107.414 213.15 107.414 214.81C107.414 216.45 107.804 217.92 108.584 219.22C109.384 220.5 110.444 221.51 111.764 222.25C113.104 222.99 114.584 223.36 116.204 223.36ZM116.204 219.31C114.984 219.31 113.984 218.89 113.204 218.05C112.444 217.21 112.064 216.13 112.064 214.81C112.064 213.51 112.444 212.44 113.204 211.6C113.984 210.74 114.984 210.31 116.204 210.31C117.424 210.31 118.414 210.74 119.174 211.6C119.934 212.44 120.314 213.51 120.314 214.81C120.314 216.13 119.934 217.21 119.174 218.05C118.414 218.89 117.424 219.31 116.204 219.31ZM127.615 223H132.115V213.43C132.115 212.49 132.365 211.74 132.865 211.18C133.385 210.6 134.085 210.31 134.965 210.31C135.845 210.31 136.535 210.6 137.035 211.18C137.555 211.74 137.815 212.49 137.815 213.43V223H142.315V213.43C142.315 212.49 142.565 211.74 143.065 211.18C143.585 210.6 144.285 210.31 145.165 210.31C146.045 210.31 146.735 210.6 147.235 211.18C147.755 211.74 148.015 212.49 148.015 213.43V223H152.515V212.47C152.515 211.23 152.255 210.15 151.735 209.23C151.215 208.29 150.495 207.56 149.575 207.04C148.675 206.52 147.635 206.26 146.455 206.26C145.395 206.26 144.425 206.47 143.545 206.89C142.685 207.29 141.965 207.92 141.385 208.78C140.925 208 140.245 207.39 139.345 206.95C138.465 206.49 137.485 206.26 136.405 206.26C135.365 206.26 134.445 206.46 133.645 206.86C132.845 207.24 132.235 207.83 131.815 208.63V206.62H127.615V223ZM163.366 223.36C165.046 223.36 166.516 223 167.776 222.28C169.036 221.54 169.916 220.57 170.416 219.37L166.816 217.66C166.496 218.22 166.046 218.66 165.466 218.98C164.906 219.3 164.226 219.46 163.426 219.46C162.326 219.46 161.426 219.15 160.726 218.53C160.026 217.91 159.616 217.09 159.496 216.07H170.956C171.036 215.85 171.086 215.59 171.106 215.29C171.146 214.97 171.166 214.65 171.166 214.33C171.166 212.81 170.846 211.45 170.206 210.25C169.586 209.03 168.676 208.06 167.476 207.34C166.276 206.62 164.806 206.26 163.066 206.26C161.506 206.26 160.106 206.63 158.866 207.37C157.626 208.11 156.636 209.12 155.896 210.4C155.176 211.68 154.816 213.14 154.816 214.78C154.816 216.36 155.166 217.8 155.866 219.1C156.566 220.4 157.556 221.44 158.836 222.22C160.116 222.98 161.626 223.36 163.366 223.36ZM163.066 209.86C163.986 209.86 164.746 210.13 165.346 210.67C165.946 211.21 166.296 211.91 166.396 212.77H159.586C159.806 211.83 160.216 211.11 160.816 210.61C161.436 210.11 162.186 209.86 163.066 209.86ZM289.112 223.36C290.352 223.36 291.492 223.15 292.532 222.73C293.572 222.29 294.462 221.69 295.202 220.93C295.942 220.17 296.462 219.31 296.762 218.35L292.862 216.64C292.582 217.46 292.112 218.11 291.452 218.59C290.792 219.07 290.012 219.31 289.112 219.31C287.932 219.31 286.962 218.89 286.202 218.05C285.442 217.21 285.062 216.13 285.062 214.81C285.062 213.49 285.442 212.41 286.202 211.57C286.962 210.73 287.932 210.31 289.112 210.31C289.992 210.31 290.762 210.55 291.422 211.03C292.102 211.51 292.582 212.16 292.862 212.98L296.762 211.3C296.442 210.28 295.912 209.4 295.172 208.66C294.432 207.9 293.542 207.31 292.502 206.89C291.462 206.47 290.332 206.26 289.112 206.26C287.472 206.26 285.992 206.63 284.672 207.37C283.352 208.11 282.312 209.13 281.552 210.43C280.792 211.71 280.412 213.16 280.412 214.78C280.412 216.4 280.792 217.86 281.552 219.16C282.332 220.46 283.372 221.49 284.672 222.25C285.992 222.99 287.472 223.36 289.112 223.36ZM299.412 223H303.912V213.43C303.912 212.49 304.192 211.74 304.752 211.18C305.312 210.6 306.032 210.31 306.912 210.31C307.792 210.31 308.512 210.6 309.072 211.18C309.632 211.74 309.912 212.49 309.912 213.43V223H314.412V212.47C314.412 211.23 314.152 210.15 313.632 209.23C313.112 208.29 312.382 207.56 311.442 207.04C310.522 206.52 309.442 206.26 308.202 206.26C307.282 206.26 306.452 206.42 305.712 206.74C304.972 207.04 304.372 207.51 303.912 208.15V200.29H299.412V223ZM325.501 223.36C327.121 223.36 328.591 222.99 329.911 222.25C331.231 221.51 332.281 220.5 333.061 219.22C333.861 217.92 334.261 216.45 334.261 214.81C334.261 213.15 333.861 211.68 333.061 210.4C332.281 209.12 331.231 208.11 329.911 207.37C328.591 206.63 327.121 206.26 325.501 206.26C323.881 206.26 322.401 206.63 321.061 207.37C319.741 208.11 318.681 209.12 317.881 210.4C317.101 211.68 316.711 213.15 316.711 214.81C316.711 216.45 317.101 217.92 317.881 219.22C318.681 220.5 319.741 221.51 321.061 222.25C322.401 222.99 323.881 223.36 325.501 223.36ZM325.501 219.31C324.281 219.31 323.281 218.89 322.501 218.05C321.741 217.21 321.361 216.13 321.361 214.81C321.361 213.51 321.741 212.44 322.501 211.6C323.281 210.74 324.281 210.31 325.501 210.31C326.721 210.31 327.711 210.74 328.471 211.6C329.231 212.44 329.611 213.51 329.611 214.81C329.611 216.13 329.231 217.21 328.471 218.05C327.711 218.89 326.721 219.31 325.501 219.31ZM345.042 223.36C346.662 223.36 348.132 222.99 349.452 222.25C350.772 221.51 351.822 220.5 352.602 219.22C353.402 217.92 353.802 216.45 353.802 214.81C353.802 213.15 353.402 211.68 352.602 210.4C351.822 209.12 350.772 208.11 349.452 207.37C348.132 206.63 346.662 206.26 345.042 206.26C343.422 206.26 341.942 206.63 340.602 207.37C339.282 208.11 338.222 209.12 337.422 210.4C336.642 211.68 336.252 213.15 336.252 214.81C336.252 216.45 336.642 217.92 337.422 219.22C338.222 220.5 339.282 221.51 340.602 222.25C341.942 222.99 343.422 223.36 345.042 223.36ZM345.042 219.31C343.822 219.31 342.822 218.89 342.042 218.05C341.282 217.21 340.902 216.13 340.902 214.81C340.902 213.51 341.282 212.44 342.042 211.6C342.822 210.74 343.822 210.31 345.042 210.31C346.262 210.31 347.252 210.74 348.012 211.6C348.772 212.44 349.152 213.51 349.152 214.81C349.152 216.13 348.772 217.21 348.012 218.05C347.252 218.89 346.262 219.31 345.042 219.31ZM362.873 223.36C364.773 223.36 366.303 222.89 367.463 221.95C368.623 221.01 369.203 219.78 369.203 218.26C369.203 217.08 368.843 216.09 368.123 215.29C367.403 214.47 366.363 213.86 365.003 213.46L362.393 212.68C361.213 212.34 360.623 211.85 360.623 211.21C360.623 210.79 360.783 210.46 361.103 210.22C361.443 209.98 361.903 209.86 362.483 209.86C363.283 209.86 363.993 210.07 364.613 210.49C365.253 210.89 365.693 211.43 365.933 212.11L369.263 210.55C368.763 209.19 367.903 208.14 366.683 207.4C365.483 206.64 364.083 206.26 362.483 206.26C361.263 206.26 360.183 206.48 359.243 206.92C358.303 207.34 357.573 207.93 357.053 208.69C356.533 209.45 356.273 210.34 356.273 211.36C356.273 212.52 356.633 213.53 357.353 214.39C358.073 215.23 359.103 215.84 360.443 216.22L363.233 217C364.313 217.3 364.853 217.78 364.853 218.44C364.853 219.42 364.193 219.91 362.873 219.91C361.993 219.91 361.193 219.66 360.473 219.16C359.753 218.66 359.183 217.97 358.763 217.09L355.463 218.65C355.943 220.09 356.843 221.24 358.163 222.1C359.503 222.94 361.073 223.36 362.873 223.36ZM379.782 223.36C381.462 223.36 382.932 223 384.192 222.28C385.452 221.54 386.332 220.57 386.832 219.37L383.232 217.66C382.912 218.22 382.462 218.66 381.882 218.98C381.322 219.3 380.642 219.46 379.842 219.46C378.742 219.46 377.842 219.15 377.142 218.53C376.442 217.91 376.032 217.09 375.912 216.07H387.372C387.452 215.85 387.502 215.59 387.522 215.29C387.562 214.97 387.582 214.65 387.582 214.33C387.582 212.81 387.262 211.45 386.622 210.25C386.002 209.03 385.092 208.06 383.892 207.34C382.692 206.62 381.222 206.26 379.482 206.26C377.922 206.26 376.522 206.63 375.282 207.37C374.042 208.11 373.052 209.12 372.312 210.4C371.592 211.68 371.232 213.14 371.232 214.78C371.232 216.36 371.582 217.8 372.282 219.1C372.982 220.4 373.972 221.44 375.252 222.22C376.532 222.98 378.042 223.36 379.782 223.36ZM379.482 209.86C380.402 209.86 381.162 210.13 381.762 210.67C382.362 211.21 382.712 211.91 382.812 212.77H376.002C376.222 211.83 376.632 211.11 377.232 210.61C377.852 210.11 378.602 209.86 379.482 209.86ZM135.877 255.15H140.377V250.65H135.877V255.15ZM135.877 273H140.377V256.62H135.877V273ZM143.67 273H148.17V263.43C148.17 262.49 148.45 261.74 149.01 261.18C149.57 260.6 150.29 260.31 151.17 260.31C152.05 260.31 152.77 260.6 153.33 261.18C153.89 261.74 154.17 262.49 154.17 263.43V273H158.67V262.47C158.67 261.23 158.41 260.15 157.89 259.23C157.37 258.29 156.64 257.56 155.7 257.04C154.78 256.52 153.7 256.26 152.46 256.26C151.42 256.26 150.5 256.46 149.7 256.86C148.9 257.24 148.29 257.83 147.87 258.63V256.62H143.67V273ZM168.049 273.36C169.949 273.36 171.479 272.89 172.639 271.95C173.799 271.01 174.379 269.78 174.379 268.26C174.379 267.08 174.019 266.09 173.299 265.29C172.579 264.47 171.539 263.86 170.179 263.46L167.569 262.68C166.389 262.34 165.799 261.85 165.799 261.21C165.799 260.79 165.959 260.46 166.279 260.22C166.619 259.98 167.079 259.86 167.659 259.86C168.459 259.86 169.169 260.07 169.789 260.49C170.429 260.89 170.869 261.43 171.109 262.11L174.439 260.55C173.939 259.19 173.079 258.14 171.859 257.4C170.659 256.64 169.259 256.26 167.659 256.26C166.439 256.26 165.359 256.48 164.419 256.92C163.479 257.34 162.749 257.93 162.229 258.69C161.709 259.45 161.449 260.34 161.449 261.36C161.449 262.52 161.809 263.53 162.529 264.39C163.249 265.23 164.279 265.84 165.619 266.22L168.409 267C169.489 267.3 170.029 267.78 170.029 268.44C170.029 269.42 169.369 269.91 168.049 269.91C167.169 269.91 166.369 269.66 165.649 269.16C164.929 268.66 164.359 267.97 163.939 267.09L160.639 268.65C161.119 270.09 162.019 271.24 163.339 272.1C164.679 272.94 166.249 273.36 168.049 273.36ZM184.958 273.18C185.698 273.18 186.398 273.13 187.058 273.03V269.19C186.638 269.25 186.288 269.28 186.008 269.28C184.148 269.28 183.218 268.45 183.218 266.79V260.52H187.058V256.62H183.218V252.9H178.718V254.1C178.718 255.78 177.848 256.62 176.108 256.62H175.958V260.52H178.718V267.09C178.718 269.01 179.258 270.51 180.338 271.59C181.438 272.65 182.978 273.18 184.958 273.18ZM197.585 273.36C199.265 273.36 200.735 273 201.995 272.28C203.255 271.54 204.135 270.57 204.635 269.37L201.035 267.66C200.715 268.22 200.265 268.66 199.685 268.98C199.125 269.3 198.445 269.46 197.645 269.46C196.545 269.46 195.645 269.15 194.945 268.53C194.245 267.91 193.835 267.09 193.715 266.07H205.175C205.255 265.85 205.305 265.59 205.325 265.29C205.365 264.97 205.385 264.65 205.385 264.33C205.385 262.81 205.065 261.45 204.425 260.25C203.805 259.03 202.895 258.06 201.695 257.34C200.495 256.62 199.025 256.26 197.285 256.26C195.725 256.26 194.325 256.63 193.085 257.37C191.845 258.11 190.855 259.12 190.115 260.4C189.395 261.68 189.035 263.14 189.035 264.78C189.035 266.36 189.385 267.8 190.085 269.1C190.785 270.4 191.775 271.44 193.055 272.22C194.335 272.98 195.845 273.36 197.585 273.36ZM197.285 259.86C198.205 259.86 198.965 260.13 199.565 260.67C200.165 261.21 200.515 261.91 200.615 262.77H193.805C194.025 261.83 194.435 261.11 195.035 260.61C195.655 260.11 196.405 259.86 197.285 259.86ZM213.105 273.36C215.145 273.36 216.785 272.73 218.025 271.47V273H222.225V262.2C222.225 261.02 221.925 259.99 221.325 259.11C220.745 258.21 219.925 257.51 218.865 257.01C217.805 256.51 216.585 256.26 215.205 256.26C213.465 256.26 211.935 256.66 210.615 257.46C209.315 258.26 208.425 259.34 207.945 260.7L211.545 262.41C211.825 261.69 212.265 261.11 212.865 260.67C213.485 260.23 214.195 260.01 214.995 260.01C215.835 260.01 216.495 260.22 216.975 260.64C217.475 261.06 217.725 261.58 217.725 262.2V262.65L213.195 263.37C211.235 263.69 209.775 264.3 208.815 265.2C207.855 266.1 207.375 267.24 207.375 268.62C207.375 270.1 207.885 271.26 208.905 272.1C209.945 272.94 211.345 273.36 213.105 273.36ZM212.025 268.47C212.025 267.93 212.195 267.52 212.535 267.24C212.875 266.94 213.365 266.73 214.005 266.61L217.725 265.95V266.46C217.725 267.46 217.385 268.31 216.705 269.01C216.025 269.71 215.125 270.06 214.005 270.06C213.445 270.06 212.975 269.92 212.595 269.64C212.215 269.36 212.025 268.97 212.025 268.47ZM233.235 273.36C234.235 273.36 235.165 273.2 236.025 272.88C236.905 272.54 237.635 272.06 238.215 271.44V273H242.415V250.29H237.915V258C236.755 256.84 235.185 256.26 233.205 256.26C231.645 256.26 230.235 256.64 228.975 257.4C227.715 258.16 226.715 259.19 225.975 260.49C225.235 261.77 224.865 263.21 224.865 264.81C224.865 266.39 225.225 267.83 225.945 269.13C226.685 270.43 227.685 271.46 228.945 272.22C230.205 272.98 231.635 273.36 233.235 273.36ZM233.775 269.31C232.535 269.31 231.515 268.89 230.715 268.05C229.915 267.21 229.515 266.13 229.515 264.81C229.515 263.51 229.915 262.44 230.715 261.6C231.515 260.74 232.535 260.31 233.775 260.31C234.995 260.31 235.985 260.73 236.745 261.57C237.525 262.41 237.915 263.49 237.915 264.81C237.915 266.15 237.525 267.24 236.745 268.08C235.985 268.9 234.995 269.31 233.775 269.31ZM259.231 273.36C260.851 273.36 262.321 272.99 263.641 272.25C264.961 271.51 266.011 270.5 266.791 269.22C267.591 267.92 267.991 266.45 267.991 264.81C267.991 263.15 267.591 261.68 266.791 260.4C266.011 259.12 264.961 258.11 263.641 257.37C262.321 256.63 260.851 256.26 259.231 256.26C257.611 256.26 256.131 256.63 254.791 257.37C253.471 258.11 252.411 259.12 251.611 260.4C250.831 261.68 250.441 263.15 250.441 264.81C250.441 266.45 250.831 267.92 251.611 269.22C252.411 270.5 253.471 271.51 254.791 272.25C256.131 272.99 257.611 273.36 259.231 273.36ZM259.231 269.31C258.011 269.31 257.011 268.89 256.231 268.05C255.471 267.21 255.091 266.13 255.091 264.81C255.091 263.51 255.471 262.44 256.231 261.6C257.011 260.74 258.011 260.31 259.231 260.31C260.451 260.31 261.441 260.74 262.201 261.6C262.961 262.44 263.341 263.51 263.341 264.81C263.341 266.13 262.961 267.21 262.201 268.05C261.441 268.89 260.451 269.31 259.231 269.31ZM272.329 273H276.829V260.52H280.339V256.62H276.829V256.38C276.829 254.92 277.679 254.19 279.379 254.19C279.659 254.19 279.989 254.22 280.369 254.28V250.44C279.909 250.34 279.379 250.29 278.779 250.29C276.739 250.29 275.149 250.82 274.009 251.88C272.889 252.94 272.329 254.44 272.329 256.38V256.62H269.569V260.52H272.329V273ZM292.365 273H296.265L300.075 262.5L303.855 273H307.755L313.425 256.62H308.745L305.565 266.13L302.025 256.62H298.125L294.555 266.13L291.375 256.62H286.725L292.365 273ZM315.408 255.15H319.908V250.65H315.408V255.15ZM315.408 273H319.908V256.62H315.408V273ZM323.201 273H327.701V263.43C327.701 262.49 327.981 261.74 328.541 261.18C329.101 260.6 329.821 260.31 330.701 260.31C331.581 260.31 332.301 260.6 332.861 261.18C333.421 261.74 333.701 262.49 333.701 263.43V273H338.201V262.47C338.201 261.23 337.941 260.15 337.421 259.23C336.901 258.29 336.171 257.56 335.231 257.04C334.311 256.52 333.231 256.26 331.991 256.26C330.951 256.26 330.031 256.46 329.231 256.86C328.431 257.24 327.821 257.83 327.401 258.63V256.62H323.201V273ZM349.2 279.6C350.78 279.6 352.17 279.28 353.37 278.64C354.59 278 355.55 277.11 356.25 275.97C356.95 274.85 357.3 273.57 357.3 272.13V256.62H353.1V258.33C351.94 256.95 350.35 256.26 348.33 256.26C346.83 256.26 345.49 256.6 344.31 257.28C343.13 257.96 342.2 258.9 341.52 260.1C340.84 261.28 340.5 262.64 340.5 264.18C340.5 265.72 340.84 267.1 341.52 268.32C342.2 269.52 343.14 270.47 344.34 271.17C345.54 271.85 346.9 272.19 348.42 272.19C350.26 272.19 351.72 271.65 352.8 270.57V272.13C352.8 273.19 352.48 274.02 351.84 274.62C351.2 275.24 350.32 275.55 349.2 275.55C348.26 275.55 347.45 275.33 346.77 274.89C346.09 274.45 345.64 273.85 345.42 273.09L341.25 274.56C341.59 275.58 342.14 276.46 342.9 277.2C343.68 277.96 344.61 278.55 345.69 278.97C346.77 279.39 347.94 279.6 349.2 279.6ZM349.05 268.11C347.91 268.11 346.97 267.75 346.23 267.03C345.51 266.31 345.15 265.38 345.15 264.24C345.15 263.08 345.51 262.14 346.23 261.42C346.97 260.68 347.91 260.31 349.05 260.31C350.17 260.31 351.07 260.67 351.75 261.39C352.45 262.11 352.8 263.06 352.8 264.24C352.8 265.4 352.45 266.34 351.75 267.06C351.07 267.76 350.17 268.11 349.05 268.11ZM367.033 273.36C368.933 273.36 370.463 272.89 371.623 271.95C372.783 271.01 373.363 269.78 373.363 268.26C373.363 267.08 373.003 266.09 372.283 265.29C371.563 264.47 370.523 263.86 369.163 263.46L366.553 262.68C365.373 262.34 364.783 261.85 364.783 261.21C364.783 260.79 364.943 260.46 365.263 260.22C365.603 259.98 366.063 259.86 366.643 259.86C367.443 259.86 368.153 260.07 368.773 260.49C369.413 260.89 369.853 261.43 370.093 262.11L373.423 260.55C372.923 259.19 372.063 258.14 370.843 257.4C369.643 256.64 368.243 256.26 366.643 256.26C365.423 256.26 364.343 256.48 363.403 256.92C362.463 257.34 361.733 257.93 361.213 258.69C360.693 259.45 360.433 260.34 360.433 261.36C360.433 262.52 360.793 263.53 361.513 264.39C362.233 265.23 363.263 265.84 364.603 266.22L367.393 267C368.473 267.3 369.013 267.78 369.013 268.44C369.013 269.42 368.353 269.91 367.033 269.91C366.153 269.91 365.353 269.66 364.633 269.16C363.913 268.66 363.343 267.97 362.923 267.09L359.623 268.65C360.103 270.09 361.003 271.24 362.323 272.1C363.663 272.94 365.233 273.36 367.033 273.36ZM378.272 273H382.772V268.5H378.272V273Z" fill="black"/>
<path d="M184.277 223.36C186.317 223.36 187.957 222.73 189.197 221.47V223H193.397V212.2C193.397 211.02 193.097 209.99 192.497 209.11C191.917 208.21 191.097 207.51 190.037 207.01C188.977 206.51 187.757 206.26 186.377 206.26C184.637 206.26 183.107 206.66 181.787 207.46C180.487 208.26 179.597 209.34 179.117 210.7L182.717 212.41C182.997 211.69 183.437 211.11 184.037 210.67C184.657 210.23 185.367 210.01 186.167 210.01C187.007 210.01 187.667 210.22 188.147 210.64C188.647 211.06 188.897 211.58 188.897 212.2V212.65L184.367 213.37C182.407 213.69 180.947 214.3 179.987 215.2C179.027 216.1 178.547 217.24 178.547 218.62C178.547 220.1 179.057 221.26 180.077 222.1C181.117 222.94 182.517 223.36 184.277 223.36ZM183.197 218.47C183.197 217.93 183.367 217.52 183.707 217.24C184.047 216.94 184.537 216.73 185.177 216.61L188.897 215.95V216.46C188.897 217.46 188.557 218.31 187.877 219.01C187.197 219.71 186.297 220.06 185.177 220.06C184.617 220.06 184.147 219.92 183.767 219.64C183.387 219.36 183.197 218.97 183.197 218.47ZM196.697 223H201.197V213.43C201.197 212.49 201.477 211.74 202.037 211.18C202.597 210.6 203.317 210.31 204.197 210.31C205.077 210.31 205.797 210.6 206.357 211.18C206.917 211.74 207.197 212.49 207.197 213.43V223H211.697V212.47C211.697 211.23 211.437 210.15 210.917 209.23C210.397 208.29 209.667 207.56 208.727 207.04C207.807 206.52 206.727 206.26 205.487 206.26C204.447 206.26 203.527 206.46 202.727 206.86C201.927 207.24 201.317 207.83 200.897 208.63V206.62H196.697V223ZM222.696 229.6C224.276 229.6 225.666 229.28 226.866 228.64C228.086 228 229.046 227.11 229.746 225.97C230.446 224.85 230.796 223.57 230.796 222.13V206.62H226.596V208.33C225.436 206.95 223.846 206.26 221.826 206.26C220.326 206.26 218.986 206.6 217.806 207.28C216.626 207.96 215.696 208.9 215.016 210.1C214.336 211.28 213.996 212.64 213.996 214.18C213.996 215.72 214.336 217.1 215.016 218.32C215.696 219.52 216.636 220.47 217.836 221.17C219.036 221.85 220.396 222.19 221.916 222.19C223.756 222.19 225.216 221.65 226.296 220.57V222.13C226.296 223.19 225.976 224.02 225.336 224.62C224.696 225.24 223.816 225.55 222.696 225.55C221.756 225.55 220.946 225.33 220.266 224.89C219.586 224.45 219.136 223.85 218.916 223.09L214.746 224.56C215.086 225.58 215.636 226.46 216.396 227.2C217.176 227.96 218.106 228.55 219.186 228.97C220.266 229.39 221.436 229.6 222.696 229.6ZM222.546 218.11C221.406 218.11 220.466 217.75 219.726 217.03C219.006 216.31 218.646 215.38 218.646 214.24C218.646 213.08 219.006 212.14 219.726 211.42C220.466 210.68 221.406 210.31 222.546 210.31C223.666 210.31 224.566 210.67 225.246 211.39C225.946 212.11 226.296 213.06 226.296 214.24C226.296 215.4 225.946 216.34 225.246 217.06C224.566 217.76 223.666 218.11 222.546 218.11ZM241.999 223.36C243.679 223.36 245.149 223 246.409 222.28C247.669 221.54 248.549 220.57 249.049 219.37L245.449 217.66C245.129 218.22 244.679 218.66 244.099 218.98C243.539 219.3 242.859 219.46 242.059 219.46C240.959 219.46 240.059 219.15 239.359 218.53C238.659 217.91 238.249 217.09 238.129 216.07H249.589C249.669 215.85 249.719 215.59 249.739 215.29C249.779 214.97 249.799 214.65 249.799 214.33C249.799 212.81 249.479 211.45 248.839 210.25C248.219 209.03 247.309 208.06 246.109 207.34C244.909 206.62 243.439 206.26 241.699 206.26C240.139 206.26 238.739 206.63 237.499 207.37C236.259 208.11 235.269 209.12 234.529 210.4C233.809 211.68 233.449 213.14 233.449 214.78C233.449 216.36 233.799 217.8 234.499 219.1C235.199 220.4 236.189 221.44 237.469 222.22C238.749 222.98 240.259 223.36 241.999 223.36ZM241.699 209.86C242.619 209.86 243.379 210.13 243.979 210.67C244.579 211.21 244.929 211.91 245.029 212.77H238.219C238.439 211.83 238.849 211.11 239.449 210.61C240.069 210.11 240.819 209.86 241.699 209.86ZM252.449 223H256.949V200.29H252.449V223ZM266.662 223.36C268.562 223.36 270.092 222.89 271.252 221.95C272.412 221.01 272.992 219.78 272.992 218.26C272.992 217.08 272.632 216.09 271.912 215.29C271.192 214.47 270.152 213.86 268.792 213.46L266.182 212.68C265.002 212.34 264.412 211.85 264.412 211.21C264.412 210.79 264.572 210.46 264.892 210.22C265.232 209.98 265.692 209.86 266.272 209.86C267.072 209.86 267.782 210.07 268.402 210.49C269.042 210.89 269.482 211.43 269.722 212.11L273.052 210.55C272.552 209.19 271.692 208.14 270.472 207.4C269.272 206.64 267.872 206.26 266.272 206.26C265.052 206.26 263.972 206.48 263.032 206.92C262.092 207.34 261.362 207.93 260.842 208.69C260.322 209.45 260.062 210.34 260.062 211.36C260.062 212.52 260.422 213.53 261.142 214.39C261.862 215.23 262.892 215.84 264.232 216.22L267.022 217C268.102 217.3 268.642 217.78 268.642 218.44C268.642 219.42 267.982 219.91 266.662 219.91C265.782 219.91 264.982 219.66 264.262 219.16C263.542 218.66 262.972 217.97 262.552 217.09L259.252 218.65C259.732 220.09 260.632 221.24 261.952 222.1C263.292 222.94 264.862 223.36 266.662 223.36ZM90.63 273H95.13V260.52H98.64V256.62H95.13V256.38C95.13 254.92 95.98 254.19 97.68 254.19C97.96 254.19 98.29 254.22 98.67 254.28V250.44C98.21 250.34 97.68 250.29 97.08 250.29C95.04 250.29 93.45 250.82 92.31 251.88C91.19 252.94 90.63 254.44 90.63 256.38V256.62H87.87V260.52H90.63V273ZM106.835 273.36C107.875 273.36 108.795 273.17 109.595 272.79C110.395 272.39 111.005 271.79 111.425 270.99V273H115.625V256.62H111.125V266.19C111.125 267.13 110.845 267.89 110.285 268.47C109.725 269.03 109.005 269.31 108.125 269.31C107.245 269.31 106.525 269.03 105.965 268.47C105.405 267.89 105.125 267.13 105.125 266.19V256.62H100.625V266.55C100.625 268.59 101.155 270.24 102.215 271.5C103.295 272.74 104.835 273.36 106.835 273.36ZM118.914 273H123.414V264.18C123.414 262.96 123.754 262.02 124.434 261.36C125.114 260.68 126.004 260.34 127.104 260.34H128.514V256.44H127.554C126.554 256.44 125.664 256.63 124.884 257.01C124.124 257.37 123.534 258.06 123.114 259.08V256.62H118.914V273Z" fill="#F93C67"/>
<ellipse cx="13.0734" cy="17" rx="13.0734" ry="17" fill="#F93C67"/>
<path d="M13.6117 21.675H17.649V16.425H15.8457C15.9713 15.7483 16.2315 15.165 16.6262 14.675C17.0389 14.1617 17.5593 13.8117 18.1873 13.625V11C16.68 11.3967 15.5406 12.26 14.769 13.59C13.9974 14.8967 13.6117 16.5767 13.6117 18.63V21.675ZM7.69019 21.675H11.7276V16.425H9.92419C10.0498 15.7483 10.31 15.165 10.7048 14.675C11.1175 14.1617 11.6378 13.8117 12.2659 13.625V11C10.7586 11.3967 9.61915 12.26 8.84756 13.59C8.07598 14.8967 7.69019 16.5767 7.69019 18.63V21.675Z" fill="white"/>
</svg>
